External Loads File
version=1
nRows=93
nColumns=13
Range=5.000000e-03-10 seconds
endheader
time 	forceRightX 	forceRightY 	forceRightZ 	pointRightX 	pointRightY 	pointRightZ 	forceLeftX 	forceLeftY 	forceLeftZ 	pointLeftX 	pointLeftY 	pointLeftZ 		
7.505000 3.592986 207.030118 -0.000000 0.350420 0.450102 -0.134179 382.190786 825.375158 -0.000000 0.271885 0.143956 -0.375359
7.510000 -0.204355 211.635064 -0.000000 0.360503 0.449607 -0.134036 372.436322 749.252271 -0.000000 0.262343 0.145507 -0.375783
7.515000 -3.632559 215.405078 -0.000000 0.370286 0.448401 -0.133874 359.165501 677.496266 -0.000000 0.252906 0.147626 -0.376231
7.520000 -6.373679 218.454167 -0.000000 0.379778 0.446500 -0.133735 343.334908 609.225285 -0.000000 0.243653 0.150411 -0.376583
7.525000 -8.256829 220.917045 -0.000000 0.388948 0.444199 -0.133554 325.290564 543.596790 -0.000000 0.234667 0.154000 -0.376981
7.530000 -9.082697 222.966969 -0.000000 0.397649 0.441171 -0.133557 305.292619 479.836210 -0.000000 0.225949 0.158187 -0.377335
7.535000 -8.488671 224.798076 -0.000000 0.406186 0.437438 -0.133163 283.818872 417.303531 -0.000000 0.217657 0.163153 -0.377632
7.540000 -6.790892 226.549581 -0.000000 0.414151 0.433259 -0.132871 260.201049 356.618006 -0.000000 0.209828 0.168590 -0.377937
7.545000 -3.802727 228.357346 -0.000000 0.421515 0.428192 -0.132591 235.174438 297.995840 -0.000000 0.202604 0.174638 -0.378115
7.550000 0.069852 230.402575 -0.000000 0.428435 0.422969 -0.131978 208.952613 242.449350 -0.000000 0.195991 0.181080 -0.378393
7.555000 4.524366 233.039386 -0.000000 0.434475 0.417288 -0.131471 182.394416 190.808982 -0.000000 0.189943 0.187807 -0.378753
7.560000 9.382575 236.820777 -0.000000 0.439875 0.411247 -0.131094 156.676216 143.698027 -0.000000 0.184489 0.194810 -0.379024
7.565000 14.531871 242.458506 -0.000000 0.444664 0.404754 -0.130834 132.924023 101.555884 -0.000000 0.179579 0.202148 -0.379176
7.570000 19.795166 250.758590 -0.000000 0.448748 0.397726 -0.130472 111.987445 64.646115 -0.000000 0.175173 0.209782 -0.379377
7.575000 25.112116 262.526606 -0.000000 0.452113 0.390337 -0.130048 94.438391 32.912875 -0.000000 0.170969 0.217786 -0.378691
7.580000 30.028210 278.533677 -0.000000 0.454772 0.382514 -0.129660 80.439921 6.183251 -0.000000 0.167472 0.225881 -0.378745
7.585000 34.658470 299.353869 -0.000000 0.456932 0.374457 -0.129647 69.874644 -16.121733 -0.000000 0.164505 0.234357 -0.378748
7.590000 38.756313 325.397121 -0.000000 0.458476 0.366172 -0.129599 62.299863 -34.521843 -0.000000 0.161915 0.243074 -0.378826
7.595000 42.849086 356.727994 -0.000000 0.459463 0.357030 -0.129455 57.022856 -49.618118 -0.000000 0.159789 0.252097 -0.378982
7.600000 46.203229 393.243897 -0.000000 0.460038 0.347693 -0.129368 53.448579 -61.669370 -0.000000 0.158260 0.261408 -0.379092
7.605000 49.048315 434.386725 -0.000000 0.460064 0.337674 -0.128882 50.942640 -71.025409 -0.000000 0.157287 0.270808 -0.379071
7.610000 50.504100 479.444046 -0.000000 0.459558 0.327586 -0.129020 49.184857 -77.844393 -0.000000 0.156903 0.280234 -0.379045
7.615000 51.024047 527.398545 -0.000000 0.458384 0.317297 -0.129105 47.805212 -82.449833 -0.000000 0.157086 0.289812 -0.379108
7.620000 50.605007 577.290454 -0.000000 0.456985 0.306841 -0.129419 46.668516 -85.145729 -0.000000 0.157849 0.299338 -0.379057
7.625000 50.719242 628.171826 -0.000000 0.455595 0.296100 -0.130087 45.554337 -86.371918 -0.000000 0.159208 0.309216 -0.378983
7.630000 49.602126 679.554195 -0.000000 0.453428 0.285830 -0.130290 44.757999 -86.306485 -0.000000 0.161230 0.319014 -0.378957
7.635000 50.731206 730.703208 -0.000000 0.450525 0.274766 -0.130013 43.871030 -85.445958 -0.000000 0.163744 0.328624 -0.378822
7.640000 53.010048 781.339927 -0.000000 0.447348 0.264077 -0.130623 43.087453 -83.888203 -0.000000 0.166854 0.338378 -0.378704
7.645000 56.739387 831.111681 -0.000000 0.443656 0.253630 -0.130810 42.403991 -81.776247 -0.000000 0.170559 0.347923 -0.378512
7.650000 63.725159 879.582050 -0.000000 0.439258 0.243356 -0.130926 41.654874 -79.308564 -0.000000 0.174892 0.357518 -0.378247
7.655000 72.137182 926.659041 -0.000000 0.434841 0.233176 -0.130745 40.975051 -76.488052 -0.000000 0.179777 0.366636 -0.378019
7.660000 84.551900 972.104920 -0.000000 0.428968 0.223379 -0.131332 40.077817 -73.499328 -0.000000 0.185236 0.375706 -0.377691
7.665000 98.733094 1016.177872 -0.000000 0.423085 0.213757 -0.131337 39.084609 -70.309275 -0.000000 0.191207 0.384531 -0.377357
7.670000 114.827371 1058.772006 -0.000000 0.416780 0.204622 -0.131595 37.935814 -67.027032 -0.000000 0.197726 0.393148 -0.376968
7.675000 133.067264 1099.262171 -0.000000 0.410137 0.195879 -0.132071 36.577742 -63.830188 -0.000000 0.204747 0.401420 -0.376621
7.680000 153.678412 1136.548089 -0.000000 0.403081 0.187716 -0.132535 34.912820 -60.981105 -0.000000 0.212223 0.409314 -0.376270
7.685000 177.939548 1169.163977 -0.000000 0.395346 0.180036 -0.132802 32.709791 -58.816168 -0.000000 0.220071 0.416775 -0.376003
7.690000 205.784593 1195.786981 -0.000000 0.387353 0.172799 -0.133283 29.742121 -57.575086 -0.000000 0.228399 0.424051 -0.375720
7.695000 235.359765 1215.509133 -0.000000 0.379211 0.166039 -0.133735 25.827663 -57.312733 -0.000000 0.237068 0.430873 -0.375446
7.700000 267.807503 1227.018768 -0.000000 0.370566 0.159697 -0.134267 20.658044 -57.950951 -0.000000 0.246103 0.437386 -0.375125
7.705000 299.308742 1230.179480 -0.000000 0.361898 0.153862 -0.134824 14.243875 -59.108758 -0.000000 0.255327 0.443303 -0.374475
7.710000 332.308816 1223.628629 -0.000000 0.352737 0.148734 -0.135180 6.420979 -60.352760 -0.000000 0.265129 0.448864 -0.374367
7.715000 362.202442 1207.930097 -0.000000 0.343416 0.144238 -0.135633 -2.512714 -61.103553 -0.000000 0.274899 0.453901 -0.373983
7.720000 388.777641 1182.885479 -0.000000 0.333946 0.140271 -0.136019 -12.383569 -60.856976 -0.000000 0.284864 0.458247 -0.373519
7.725000 411.343335 1148.730400 -0.000000 0.324243 0.136909 -0.136256 -22.980650 -59.207777 -0.000000 0.295005 0.461949 -0.372980
7.730000 428.618002 1106.273726 -0.000000 0.314448 0.134256 -0.136433 -34.113605 -55.962787 -0.000000 0.305325 0.464752 -0.372568
7.735000 439.462534 1056.681869 -0.000000 0.304662 0.132280 -0.136656 -45.673013 -51.184113 -0.000000 0.315673 0.466919 -0.372249
7.740000 444.060026 1000.933575 -0.000000 0.294920 0.130900 -0.136899 -57.677702 -45.100069 -0.000000 0.326167 0.468313 -0.371867
7.745000 442.237690 940.405849 -0.000000 0.285300 0.130248 -0.137152 -70.151828 -38.090922 -0.000000 0.336726 0.468845 -0.371674
7.750000 434.537200 876.314473 -0.000000 0.275603 0.130130 -0.137229 -83.113789 -30.587369 -0.000000 0.347196 0.468678 -0.371555
7.755000 420.373586 810.442731 -0.000000 0.266236 0.130545 -0.137463 -96.478541 -23.201965 -0.000000 0.357438 0.467930 -0.371252
7.760000 402.304788 742.821985 -0.000000 0.256987 0.131774 -0.137839 -110.195639 -16.218061 -0.000000 0.367810 0.466576 -0.371069
7.765000 380.090208 674.663439 -0.000000 0.247925 0.133454 -0.138038 -124.033744 -10.137988 -0.000000 0.377896 0.464630 -0.370742
7.770000 354.917981 606.199447 -0.000000 0.239056 0.135761 -0.138182 -137.692481 -5.163852 -0.000000 0.387746 0.462174 -0.370456
7.775000 327.352036 537.811170 -0.000000 0.230516 0.138682 -0.138343 -150.796264 -1.439752 -0.000000 0.397315 0.459206 -0.370092
7.780000 298.090672 469.687295 -0.000000 0.222221 0.142311 -0.138408 -162.967938 1.135143 -0.000000 0.406485 0.455709 -0.369660
7.785000 267.400983 402.269271 -0.000000 0.214365 0.146530 -0.138615 -173.853021 2.781730 -0.000000 0.415318 0.451635 -0.369254
7.790000 235.463729 336.195976 -0.000000 0.206934 0.151193 -0.138769 -183.142059 3.837794 -0.000000 0.423822 0.447172 -0.369070
7.795000 202.633373 272.285885 -0.000000 0.200171 0.156584 -0.138925 -190.602180 4.765083 -0.000000 0.431726 0.441993 -0.368567
7.800000 169.268781 211.727467 -0.000000 0.193846 0.162144 -0.139043 -196.130948 5.936446 -0.000000 0.439086 0.436426 -0.368357
7.805000 136.314045 155.529216 -0.000000 0.188019 0.168147 -0.139056 -199.785586 8.044554 -0.000000 0.445909 0.430305 -0.368273
7.810000 104.509714 104.909917 -0.000000 0.182910 0.174268 -0.138897 -201.816727 11.442074 -0.000000 0.452064 0.423694 -0.368129
7.815000 75.077314 60.461289 -0.000000 0.178039 0.180852 -0.138545 -202.629430 17.083478 -0.000000 0.457511 0.416683 -0.368178
7.820000 48.899614 22.622533 -0.000000 0.173674 0.187924 -0.138446 -202.794754 25.692825 -0.000000 0.462321 0.409212 -0.368346
7.825000 26.676677 -8.617541 -0.000000 0.169925 0.195180 -0.138317 -203.002806 37.904914 -0.000000 0.466425 0.401264 -0.368430
7.830000 8.755245 -33.780834 -0.000000 0.166176 0.203000 -0.138331 -203.804890 55.038979 -0.000000 0.469785 0.392605 -0.368536
7.835000 -4.768838 -53.542164 -0.000000 0.163074 0.210991 -0.138397 -205.917534 77.236234 -0.000000 0.472323 0.383850 -0.368788
7.840000 -14.263031 -68.763908 -0.000000 0.159817 0.219501 -0.139226 -209.638424 105.831395 -0.000000 0.474061 0.374792 -0.368965
7.845000 -20.177700 -80.279160 -0.000000 0.157706 0.228362 -0.139277 -215.448328 141.243744 -0.000000 0.475091 0.365396 -0.369847
7.850000 -23.349547 -88.789077 -0.000000 0.155938 0.237523 -0.139453 -223.376452 184.462267 -0.000000 0.475324 0.355562 -0.370252
7.855000 -24.512655 -94.858212 -0.000000 0.154859 0.246964 -0.139451 -233.556897 235.860074 -0.000000 0.474607 0.345558 -0.370493
7.860000 -24.456912 -98.797814 -0.000000 0.154267 0.256595 -0.139456 -245.611504 295.929646 -0.000000 0.473050 0.335312 -0.370590
7.865000 -23.688007 -100.746042 -0.000000 0.154241 0.266550 -0.139581 -259.094564 364.595154 -0.000000 0.471041 0.325191 -0.370479
7.870000 -22.511092 -100.732914 -0.000000 0.154804 0.276436 -0.139573 -273.227636 441.374740 -0.000000 0.468440 0.314722 -0.370512
7.875000 -21.063751 -98.813633 -0.000000 0.155997 0.286492 -0.139536 -286.939992 525.240351 -0.000000 0.465468 0.304099 -0.370612
7.880000 -19.357549 -95.164416 -0.000000 0.157741 0.296669 -0.139641 -299.123688 614.575777 -0.000000 0.462245 0.293307 -0.370808
7.885000 -17.305134 -90.103271 -0.000000 0.160113 0.306830 -0.139686 -309.226888 707.206407 -0.000000 0.458590 0.282516 -0.371128
7.890000 -14.910389 -84.020060 -0.000000 0.163228 0.316843 -0.139698 -316.875282 800.960111 -0.000000 0.454738 0.271872 -0.371083
7.895000 -12.369183 -77.279596 -0.000000 0.166636 0.326752 -0.139672 -321.164433 894.125093 -0.000000 0.450451 0.261398 -0.371011
7.900000 -9.983044 -70.129401 -0.000000 0.170895 0.336502 -0.139488 -320.820269 985.337581 -0.000000 0.445661 0.251132 -0.371071
7.905000 -8.059296 -62.644353 -0.000000 0.175633 0.346134 -0.139440 -314.721235 1073.293469 -0.000000 0.440409 0.241087 -0.371199
7.910000 -6.785393 -54.744139 -0.000000 0.180950 0.355419 -0.139286 -303.489819 1156.294154 -0.000000 0.434588 0.231616 -0.371217
7.915000 -6.360374 -46.216357 -0.000000 0.186723 0.364483 -0.139175 -286.075116 1233.358564 -0.000000 0.428357 0.222643 -0.371239
7.920000 -6.767905 -36.799861 -0.000000 0.193081 0.373096 -0.138996 -262.419491 1303.515109 -0.000000 0.421810 0.214055 -0.371235
7.925000 -7.856071 -26.245322 -0.000000 0.199852 0.381421 -0.138796 -231.591362 1366.205732 -0.000000 0.414971 0.205685 -0.371221
7.930000 -9.309687 -14.399214 -0.000000 0.207214 0.389218 -0.138554 -194.177394 1420.559370 -0.000000 0.407835 0.197626 -0.371252
7.935000 -10.773590 -1.228717 -0.000000 0.214926 0.396810 -0.138335 -150.398325 1465.612117 -0.000000 0.400435 0.190031 -0.371286
7.940000 -11.887357 13.187790 -0.000000 0.223053 0.404217 -0.138117 -100.295353 1500.259594 -0.000000 0.392636 0.183075 -0.371315
7.945000 -12.352744 28.662048 -0.000000 0.231410 0.410942 -0.137770 -46.152524 1523.324795 -0.000000 0.384401 0.176635 -0.371194
7.950000 -11.954035 44.966065 -0.000000 0.240184 0.417122 -0.137467 11.361141 1534.062591 -0.000000 0.375937 0.170786 -0.371266
7.955000 -10.548372 61.890161 -0.000000 0.249226 0.422894 -0.137120 71.571033 1531.961521 -0.000000 0.367083 0.165479 -0.371304
7.960000 -8.083749 79.277663 -0.000000 0.258583 0.428344 -0.136827 133.199583 1516.790626 -0.000000 0.357858 0.160650 -0.371378
7.965000 -4.813592 96.986909 -0.000000 0.267908 0.433189 -0.136513 191.003224 1489.155893 -0.000000 0.348421 0.156464 -0.371639
